<?xml version="1.0" standalone="no"?>
<!DOCTYPE svg PUBLIC "-//W3C//DTD SVG 20010904//EN"
 "http://www.w3.org/TR/2001/REC-SVG-20010904/DTD/svg10.dtd">
<svg version="1.0" xmlns="http://www.w3.org/2000/svg"
 width="512.000000pt" height="512.000000pt" viewBox="0 0 512.000000 512.000000"
 preserveAspectRatio="xMidYMid meet">

<g transform="translate(0.000000,512.000000) scale(0.100000,-0.100000)"
fill="#000000" stroke="none">
<path d="M517 5105 c-242 -49 -456 -266 -503 -512 -21 -112 -21 -3954 0 -4066
48 -250 262 -465 511 -512 115 -22 3955 -22 4070 0 249 47 463 262 511 512 21
112 21 3954 0 4066 -48 250 -262 465 -511 512 -110 21 -3972 21 -4078 0z
m3888 -579 c60 -28 87 -56 114 -116 19 -42 21 -64 21 -365 0 -301 -2 -323 -21
-365 -27 -60 -54 -88 -114 -116 -49 -24 -54 -24 -385 -24 -331 0 -336 0 -385
24 -60 28 -87 56 -114 116 -19 42 -21 64 -21 365 0 301 2 323 21 365 27 60 54
88 114 116 49 24 54 24 385 24 331 0 336 0 385 -24z m-1629 -982 c203 -36 396
-143 549 -305 179 -190 265 -407 265 -669 0 -321 -140 -596 -403 -792 -210
-156 -457 -222 -731 -197 -195 18 -355 80 -511 196 -265 197 -405 471 -405
793 0 260 85 476 261 665 250 268 593 377 975 309z m-1752 -646 c-32 -122 -46
-236 -46 -383 0 -435 146 -775 463 -1086 249 -244 549 -392 889 -440 135 -19
386 -14 520 10 330 58 621 209 855 445 178 179 300 372 373 592 86 258 100
560 38 817 l-23 97 224 0 223 0 -2 -1112 -3 -1113 -29 -42 c-19 -28 -46 -51
-80 -68 l-52 -25 -1835 2 -1835 3 -41 27 c-22 15 -51 44 -64 65 l-24 38 -3
1113 -2 1112 234 0 234 0 -14 -52z"/>
</g>
</svg>
