<?xml version="1.0" standalone="no"?>
<!DOCTYPE svg PUBLIC "-//W3C//DTD SVG 20010904//EN"
 "http://www.w3.org/TR/2001/REC-SVG-20010904/DTD/svg10.dtd">
<svg version="1.0" xmlns="http://www.w3.org/2000/svg"
 width="920.000000pt" height="700.000000pt" viewBox="0 0 920.000000 700.000000"
 preserveAspectRatio="xMidYMid meet">

<g transform="translate(0.000000,700.000000) scale(0.100000,-0.100000)"
fill="#000000" stroke="none">
<path d="M5426 5280 c-204 -32 -365 -111 -510 -249 -226 -217 -321 -509 -269
-835 l6 -38 -64 6 c-167 18 -307 41 -444 76 -443 111 -848 339 -1177 662 -69
68 -143 145 -165 171 l-39 48 -37 -78 c-63 -135 -80 -217 -80 -388 0 -135 2
-159 27 -240 57 -189 175 -370 303 -464 34 -25 62 -49 62 -52 2 -10 -144 11
-214 32 -38 12 -99 34 -133 50 l-64 29 7 -73 c16 -172 77 -342 169 -470 63
-90 192 -208 282 -261 44 -25 124 -60 178 -78 92 -30 97 -33 70 -42 -16 -5
-107 -10 -201 -10 -95 -1 -173 -5 -173 -9 0 -18 70 -159 107 -214 96 -145 264
-281 422 -342 93 -36 203 -61 267 -61 24 0 44 -4 44 -9 0 -9 -122 -92 -225
-154 -264 -157 -664 -251 -990 -232 -81 4 -117 3 -110 -3 6 -6 68 -42 139 -81
654 -355 1432 -416 2156 -166 139 48 400 177 525 261 721 480 1170 1319 1175
2199 l1 120 65 50 c82 63 263 248 331 340 29 38 51 71 49 72 -2 2 -44 -12 -93
-31 -126 -48 -435 -121 -406 -96 4 4 35 27 69 53 111 83 218 217 274 341 50
111 52 109 -55 54 -115 -59 -268 -117 -391 -149 l-91 -23 -64 58 c-110 99
-258 176 -406 210 -89 20 -250 28 -327 16z"/>
</g>
</svg>
